<svg xmlns="http://www.w3.org/2000/svg" xmlns:xlink="http://www.w3.org/1999/xlink" width="456" zoomAndPan="magnify" viewBox="0 0 342 311.25" height="415" preserveAspectRatio="xMidYMid meet" version="1.0"><defs><g/><clipPath id="fc7f4a999f"><path d="M 0.410156 0 L 341.589844 0 L 341.589844 310.5 L 0.410156 310.5 Z M 0.410156 0 " clip-rule="nonzero"/></clipPath><clipPath id="3b7a192c12"><path d="M 75.867188 75.226562 L 266.910156 75.226562 L 266.910156 234.789062 L 75.867188 234.789062 Z M 75.867188 75.226562 " clip-rule="nonzero"/></clipPath><clipPath id="3613173a73"><path d="M 75.867188 75.226562 L 266.910156 75.226562 L 266.910156 207 L 75.867188 207 Z M 75.867188 75.226562 " clip-rule="nonzero"/></clipPath><clipPath id="2ed3517353"><path d="M 88 120 L 261 120 L 261 234.789062 L 88 234.789062 Z M 88 120 " clip-rule="nonzero"/></clipPath></defs><g clip-path="url(#fc7f4a999f)"><path fill="#ffffff" d="M 0.410156 0 L 341.589844 0 L 341.589844 317.984375 L 0.410156 317.984375 Z M 0.410156 0 " fill-opacity="1" fill-rule="nonzero"/><path fill="#ffffff" d="M 0.410156 0 L 341.589844 0 L 341.589844 310.5 L 0.410156 310.5 Z M 0.410156 0 " fill-opacity="1" fill-rule="nonzero"/></g><g clip-path="url(#3b7a192c12)"><path fill="#d4f6c8" d="M 266.660156 148.574219 C 266.660156 152.476562 266.625 155.304688 266.667969 158.132812 C 266.710938 160.738281 266.445312 163.328125 266.382812 165.929688 C 266.320312 168.519531 266.101562 171.109375 265.953125 173.699219 C 265.820312 176.066406 265.652344 178.433594 265.515625 180.800781 C 265.363281 183.386719 265.128906 185.96875 264.855469 188.546875 C 264.535156 191.546875 264.015625 194.503906 262.433594 197.152344 C 260.675781 200.089844 258.234375 202.105469 254.800781 202.78125 C 252.503906 203.230469 250.179688 203.324219 247.851562 203.464844 C 243.210938 203.742188 238.5625 203.785156 233.929688 203.605469 C 226.421875 203.316406 218.914062 203.652344 211.414062 203.398438 C 200.449219 203.03125 189.484375 203.28125 178.523438 203.261719 C 176.046875 203.257812 173.550781 203.316406 171.074219 203.488281 C 169.703125 203.582031 168.332031 203.566406 166.96875 203.679688 C 164.273438 203.902344 161.566406 203.949219 158.875 204.160156 C 156.234375 204.367188 153.601562 204.179688 150.972656 204.355469 C 148.304688 204.535156 145.625 204.429688 142.964844 204.605469 C 141.484375 204.707031 139.996094 204.644531 138.523438 204.804688 C 135.875 205.09375 133.210938 205.117188 130.558594 205.382812 C 129.128906 205.527344 127.675781 205.59375 126.238281 205.691406 C 124.839844 205.789062 123.425781 205.800781 122.042969 206.070312 C 121.933594 206.089844 121.820312 206.105469 121.710938 206.101562 C 119.8125 205.992188 117.9375 206.367188 116.042969 206.34375 C 113.222656 206.3125 110.402344 206.496094 107.589844 206.632812 C 104.878906 206.761719 102.171875 206.832031 99.46875 206.75 C 96.25 206.652344 93.054688 206.230469 89.945312 205.332031 C 88.027344 204.777344 86.292969 203.847656 84.855469 202.457031 C 83.535156 201.171875 82.574219 199.605469 81.941406 197.882812 C 81.019531 195.367188 80.566406 192.75 80.289062 190.078125 C 80.058594 187.832031 79.921875 185.578125 79.71875 183.332031 C 79.585938 181.898438 79.484375 180.449219 79.398438 179.007812 C 79.3125 177.53125 79.308594 176.042969 79.03125 174.582031 C 79.003906 174.4375 78.996094 174.285156 78.996094 174.140625 C 79.003906 171.503906 78.617188 168.890625 78.496094 166.261719 C 78.390625 163.929688 78.1875 161.601562 78.0625 159.269531 C 77.894531 156.273438 77.757812 153.269531 77.59375 150.273438 C 77.5 148.605469 77.523438 146.933594 77.402344 145.269531 C 77.171875 142.160156 77.136719 139.042969 76.925781 135.9375 C 76.828125 134.414062 76.894531 132.886719 76.71875 131.382812 C 76.511719 129.636719 76.691406 127.882812 76.488281 126.15625 C 76.234375 123.960938 76.414062 121.773438 76.289062 119.585938 C 75.859375 111.925781 76.261719 104.261719 76.042969 96.601562 C 75.988281 94.75 75.882812 92.894531 75.871094 91.039062 C 75.863281 90.214844 76.019531 89.414062 76.210938 88.625 C 76.617188 86.957031 77.738281 85.925781 79.359375 85.488281 C 80.894531 85.074219 82.445312 84.707031 84.003906 84.398438 C 86.433594 83.917969 88.867188 83.445312 91.3125 83.074219 C 93.433594 82.757812 95.574219 82.582031 97.703125 82.351562 C 99.6875 82.132812 101.667969 81.894531 103.65625 81.726562 C 104.6875 81.636719 105.726562 81.546875 106.757812 81.496094 C 109.015625 81.394531 111.25 81.082031 113.507812 80.96875 C 115.949219 80.839844 118.394531 80.734375 120.824219 80.507812 C 122.855469 80.316406 124.90625 80.585938 126.917969 80.144531 C 127.023438 80.121094 127.140625 80.128906 127.25 80.132812 C 130.558594 80.246094 133.855469 79.914062 137.15625 79.84375 C 139.230469 79.796875 141.316406 79.816406 143.378906 79.621094 C 144.789062 79.488281 146.210938 79.625 147.59375 79.417969 C 149.695312 79.097656 151.828125 79.453125 153.914062 79.027344 C 153.984375 79.011719 154.0625 79.011719 154.136719 79.015625 C 156.402344 79.136719 158.652344 78.765625 160.917969 78.785156 C 163.292969 78.808594 165.660156 78.566406 168.03125 78.492188 C 169.546875 78.449219 171.070312 78.433594 172.585938 78.3125 C 175.058594 78.109375 177.535156 78.003906 180.011719 77.847656 C 181.820312 77.738281 183.628906 77.578125 185.429688 77.398438 C 187.414062 77.199219 189.40625 77.054688 191.386719 76.832031 C 192.558594 76.699219 193.753906 76.628906 194.925781 76.507812 C 197.242188 76.269531 199.582031 76.277344 201.886719 75.902344 C 201.957031 75.890625 202.035156 75.886719 202.109375 75.890625 C 204.410156 75.96875 206.699219 75.679688 209 75.621094 C 219.109375 75.363281 229.21875 75.539062 239.324219 75.371094 C 242.03125 75.324219 244.742188 75.183594 247.449219 75.242188 C 249.808594 75.289062 252.167969 75.550781 254.503906 75.953125 C 255.78125 76.171875 257.046875 76.4375 258.285156 76.828125 C 260.359375 77.480469 261.667969 78.898438 262.417969 80.890625 C 263.019531 82.496094 263.292969 84.183594 263.519531 85.871094 C 263.792969 87.886719 263.96875 89.914062 264.1875 91.9375 C 264.191406 91.976562 264.191406 92.011719 264.191406 92.050781 C 264.082031 93.835938 264.476562 95.601562 264.433594 97.386719 C 264.378906 99.542969 264.636719 101.6875 264.703125 103.839844 C 264.769531 106.132812 264.992188 108.425781 265.132812 110.71875 C 265.277344 113.121094 265.433594 115.527344 265.582031 117.929688 C 265.765625 120.890625 265.894531 123.855469 266.039062 126.816406 C 266.125 128.597656 266.074219 130.386719 266.257812 132.15625 C 266.414062 133.679688 266.316406 135.203125 266.460938 136.710938 C 266.882812 141.019531 266.519531 145.335938 266.660156 148.574219 Z M 254.601562 164.492188 C 254.464844 162.277344 254.660156 159.195312 254.449219 156.105469 C 254.226562 152.855469 254.050781 149.585938 253.992188 146.328125 C 253.902344 141.308594 253.78125 136.292969 253.730469 131.273438 C 253.699219 128.300781 253.355469 125.335938 253.480469 122.359375 C 253.484375 122.285156 253.484375 122.210938 253.472656 122.136719 C 253.070312 119.75 253.3125 117.324219 253.089844 114.921875 C 252.9375 113.265625 252.699219 111.597656 252.808594 109.921875 C 252.8125 109.847656 252.804688 109.773438 252.789062 109.699219 C 252.464844 108.167969 252.539062 106.601562 252.410156 105.054688 C 252.265625 103.28125 252.140625 101.511719 251.707031 99.78125 C 251.164062 97.625 250.753906 95.417969 249.65625 93.445312 C 248.503906 91.367188 247.140625 89.523438 244.804688 88.59375 C 243.359375 88.019531 241.855469 87.882812 240.351562 87.746094 C 239.136719 87.632812 237.917969 87.648438 236.695312 87.542969 C 234.078125 87.316406 231.445312 87.175781 228.820312 87.089844 C 224.445312 86.945312 220.0625 86.953125 215.679688 86.875 C 211.117188 86.789062 206.542969 86.621094 201.980469 87.023438 C 200.136719 87.183594 198.28125 87.070312 196.421875 87.210938 C 194.171875 87.382812 191.902344 87.429688 189.644531 87.457031 C 187.378906 87.480469 185.109375 87.578125 182.867188 87.785156 C 180.945312 87.964844 179.019531 87.976562 177.105469 88.089844 C 174.480469 88.25 171.847656 88.523438 169.210938 88.398438 C 169.023438 88.390625 168.832031 88.371094 168.652344 88.414062 C 166.867188 88.828125 165.035156 88.625 163.230469 88.773438 C 160.648438 88.984375 158.054688 89.082031 155.46875 89.234375 C 153.140625 89.367188 150.8125 89.480469 148.488281 89.714844 C 146.652344 89.902344 144.789062 89.9375 142.96875 90.21875 C 140.589844 90.589844 138.191406 90.742188 135.808594 91.035156 C 133.203125 91.351562 130.582031 91.605469 127.964844 91.695312 C 125.699219 91.769531 123.460938 92.039062 121.210938 92.222656 C 120.179688 92.304688 119.140625 92.347656 118.113281 92.453125 C 116.347656 92.632812 114.59375 92.910156 112.828125 93.058594 C 110.835938 93.226562 108.863281 93.539062 106.898438 93.875 C 104.859375 94.21875 102.828125 94.636719 100.8125 95.113281 C 98.792969 95.589844 96.796875 96.132812 94.941406 97.136719 C 92.8125 98.289062 91.71875 100.1875 91.539062 102.4375 C 91.304688 105.390625 91.1875 108.359375 91.074219 111.320312 C 90.882812 116.335938 91.199219 121.359375 90.839844 126.375 C 90.757812 127.519531 90.925781 128.667969 90.996094 129.816406 C 91.167969 132.667969 90.9375 135.53125 91.222656 138.394531 C 91.425781 140.417969 91.25 142.46875 91.4375 144.511719 C 91.671875 147.097656 91.398438 149.707031 91.671875 152.308594 C 91.871094 154.222656 91.660156 156.160156 91.886719 158.09375 C 92.085938 159.820312 91.996094 161.574219 92.101562 163.316406 C 92.269531 166.019531 92.386719 168.722656 92.566406 171.421875 C 92.695312 173.347656 92.6875 175.277344 92.777344 177.207031 C 92.910156 180.175781 93.082031 183.132812 93.742188 186.027344 C 94.179688 187.925781 94.941406 189.679688 96.410156 191.078125 C 98.074219 192.660156 100.128906 193.332031 102.277344 193.820312 C 103.507812 194.097656 104.753906 194.230469 106.011719 194.34375 C 107.335938 194.464844 108.648438 194.730469 109.984375 194.707031 C 113.285156 194.65625 116.585938 194.738281 119.890625 194.5625 C 123.515625 194.367188 127.152344 194.375 130.777344 194.078125 C 132.433594 193.941406 134.117188 193.898438 135.773438 193.886719 C 139.785156 193.863281 143.785156 193.5625 147.796875 193.589844 C 149.613281 193.605469 151.421875 193.652344 153.246094 193.421875 C 155.222656 193.175781 157.226562 193.121094 159.21875 192.96875 C 161.652344 192.777344 164.09375 192.640625 166.535156 192.527344 C 169.417969 192.390625 172.304688 192.191406 175.1875 192.082031 C 179.191406 191.933594 183.203125 192.003906 187.214844 191.859375 C 189.289062 191.785156 191.363281 191.644531 193.433594 191.539062 C 195.875 191.417969 198.308594 191.175781 200.753906 191.160156 C 202.941406 191.148438 205.117188 190.789062 207.3125 190.914062 C 207.386719 190.917969 207.460938 190.921875 207.535156 190.902344 C 209.46875 190.464844 211.453125 190.84375 213.40625 190.515625 C 214.636719 190.304688 215.917969 190.375 217.171875 190.3125 C 220.132812 190.167969 223.089844 189.996094 226.046875 189.839844 C 228.453125 189.714844 230.851562 189.574219 233.253906 189.398438 C 235.835938 189.207031 238.425781 189.113281 241.011719 188.941406 C 242.695312 188.828125 244.316406 188.542969 245.898438 187.992188 C 247.535156 187.421875 249.039062 186.609375 250.222656 185.335938 C 252.105469 183.316406 253.378906 180.957031 253.972656 178.238281 C 254.371094 176.417969 254.5 174.570312 254.578125 172.726562 C 254.679688 170.273438 254.601562 167.8125 254.601562 164.492188 Z M 211.023438 92.855469 C 213.859375 92.855469 215.757812 92.878906 217.652344 92.847656 C 222.035156 92.777344 226.414062 93.058594 230.792969 93.140625 C 233.441406 93.195312 236.117188 93.300781 238.753906 93.714844 C 239.519531 93.835938 240.308594 93.90625 241.070312 93.921875 C 242.480469 93.949219 243.277344 94.800781 243.886719 95.8125 C 244.773438 97.273438 245.394531 98.871094 245.6875 100.578125 C 245.789062 101.160156 246.035156 101.714844 246.125 102.296875 C 246.382812 104.019531 246.566406 105.75 246.582031 107.496094 C 246.597656 109.199219 246.773438 110.894531 246.980469 112.585938 C 247.027344 112.953125 247.019531 113.328125 247.011719 113.699219 C 246.976562 115.746094 247.152344 117.773438 247.441406 119.792969 C 247.457031 119.902344 247.460938 120.015625 247.457031 120.128906 C 247.335938 123.214844 247.609375 126.292969 247.738281 129.371094 C 247.945312 134.128906 247.78125 138.890625 247.964844 143.640625 C 248.035156 145.457031 248.027344 147.28125 248.164062 149.089844 C 248.421875 152.570312 248.4375 156.0625 248.644531 159.539062 C 248.84375 162.925781 248.839844 166.304688 248.75 169.679688 C 248.683594 172.148438 248.734375 174.648438 248.148438 177.089844 C 247.375 180.339844 245.34375 182.597656 241.628906 182.90625 C 239.269531 183.105469 236.90625 183.234375 234.539062 183.367188 C 232.210938 183.496094 229.886719 183.671875 227.558594 183.8125 C 224.863281 183.972656 222.160156 184.105469 219.464844 184.273438 C 217.796875 184.375 216.128906 184.34375 214.46875 184.472656 C 211.621094 184.695312 208.769531 184.769531 205.925781 184.949219 C 204.222656 185.058594 202.515625 185.007812 200.816406 185.140625 C 197.972656 185.363281 195.113281 185.359375 192.277344 185.597656 C 188.425781 185.921875 184.578125 186.039062 180.71875 186.019531 C 177.972656 186.003906 175.234375 186.210938 172.488281 186.285156 C 169.605469 186.367188 166.722656 186.582031 163.835938 186.71875 C 161.546875 186.824219 159.246094 186.941406 156.96875 187.171875 C 153.75 187.503906 150.527344 187.460938 147.3125 187.628906 C 144.191406 187.792969 141.070312 187.644531 137.964844 187.847656 C 136.257812 187.960938 134.554688 187.925781 132.855469 188.042969 C 129.636719 188.269531 126.414062 188.316406 123.199219 188.515625 C 118.371094 188.820312 113.542969 188.699219 108.71875 188.648438 C 106.589844 188.628906 104.445312 188.328125 102.363281 187.753906 C 100.871094 187.34375 99.882812 186.484375 99.554688 184.929688 C 99.191406 183.1875 98.925781 181.441406 98.824219 179.65625 C 98.707031 177.578125 98.710938 175.496094 98.566406 173.429688 C 98.472656 172.019531 98.488281 170.609375 98.382812 169.207031 C 98.160156 166.285156 98.089844 163.355469 97.894531 160.433594 C 97.789062 158.835938 97.851562 157.238281 97.710938 155.652344 C 97.460938 152.757812 97.636719 149.855469 97.453125 146.96875 C 97.335938 145.109375 97.453125 143.246094 97.242188 141.40625 C 96.980469 139.066406 97.210938 136.722656 97.035156 134.394531 C 96.621094 128.894531 96.78125 123.386719 96.90625 117.890625 C 97 113.6875 96.988281 109.492188 97.066406 105.292969 C 97.078125 104.585938 97.304688 103.910156 97.332031 103.199219 C 97.355469 102.636719 97.773438 102.300781 98.285156 102.066406 C 99.472656 101.515625 100.746094 101.234375 102.003906 100.9375 C 104.878906 100.253906 107.777344 99.664062 110.71875 99.304688 C 112.734375 99.058594 114.746094 98.777344 116.777344 98.628906 C 119.5 98.429688 122.210938 98 124.9375 97.816406 C 126.226562 97.730469 127.511719 97.546875 128.8125 97.535156 C 130.476562 97.523438 132.128906 97.285156 133.789062 97.15625 C 134.929688 97.066406 136.066406 96.902344 137.214844 96.847656 C 138.800781 96.773438 140.382812 96.566406 141.960938 96.367188 C 143.867188 96.128906 145.761719 95.816406 147.6875 95.738281 C 148.863281 95.6875 150.039062 95.5 151.214844 95.375 C 151.359375 95.359375 151.507812 95.316406 151.652344 95.324219 C 153.585938 95.410156 155.515625 95.171875 157.425781 95.019531 C 159.234375 94.875 161.066406 95.082031 162.851562 94.664062 C 162.921875 94.644531 163 94.648438 163.074219 94.652344 C 165.523438 94.753906 167.964844 94.46875 170.40625 94.355469 C 172.433594 94.257812 174.488281 94.386719 176.5 93.996094 C 176.75 93.945312 177.019531 93.964844 177.28125 93.980469 C 179.4375 94.09375 181.578125 93.8125 183.722656 93.6875 C 185.242188 93.597656 186.769531 93.660156 188.273438 93.492188 C 190.3125 93.265625 192.363281 93.457031 194.382812 93.25 C 196.128906 93.074219 197.875 93.222656 199.605469 93.050781 C 203.722656 92.636719 207.847656 92.996094 211.023438 92.855469 Z M 152.90625 121.898438 C 153.039062 123.304688 153.1875 124.710938 153.296875 126.117188 C 153.570312 129.679688 153.597656 133.25 153.792969 136.816406 C 154.105469 142.613281 154.734375 148.378906 155.582031 154.121094 C 155.964844 156.730469 156.410156 159.335938 156.890625 161.929688 C 157.171875 163.4375 157.902344 163.828125 159.386719 163.410156 C 159.636719 163.34375 159.875 163.226562 160.105469 163.109375 C 160.664062 162.816406 161.230469 162.53125 161.769531 162.207031 C 167.292969 158.902344 172.578125 155.246094 177.804688 151.5 C 182.394531 148.210938 186.785156 144.644531 191.613281 141.691406 C 192.851562 140.933594 194.074219 140.160156 195.308594 139.402344 C 195.726562 139.148438 196.089844 138.855469 196.375 138.441406 C 197.097656 137.390625 196.941406 136.59375 195.804688 135.988281 C 195.148438 135.640625 194.460938 135.34375 193.765625 135.09375 C 191.214844 134.175781 188.664062 133.257812 186.097656 132.394531 C 179.480469 130.167969 172.863281 127.945312 166.433594 125.214844 C 162.570312 123.578125 158.726562 121.902344 154.816406 120.371094 C 153.324219 119.789062 152.585938 120.175781 152.90625 121.898438 Z M 148.90625 227.90625 C 149.421875 225.367188 149.414062 223.015625 148.703125 220.730469 C 149.09375 220.480469 149.4375 220.585938 149.757812 220.589844 C 157.234375 220.730469 164.707031 220.617188 172.175781 220.355469 C 177.710938 220.160156 183.253906 220.179688 188.78125 219.796875 C 189.78125 219.730469 190.789062 219.707031 191.792969 219.707031 C 200.121094 219.703125 208.441406 219.355469 216.765625 219.039062 C 222.113281 218.835938 227.464844 218.628906 232.820312 218.648438 C 234.644531 218.65625 236.460938 218.5 238.277344 218.390625 C 243.402344 218.074219 248.539062 218.261719 253.664062 217.980469 C 255.371094 217.886719 257.078125 217.816406 258.789062 217.746094 C 259.121094 217.730469 259.460938 217.722656 259.789062 217.769531 C 260.28125 217.84375 260.5625 218.121094 260.632812 218.652344 C 260.84375 220.242188 260.914062 221.839844 260.835938 223.441406 C 260.789062 224.421875 260.464844 224.769531 259.5 224.890625 C 258.835938 224.972656 258.167969 225.066406 257.5 225.066406 C 253.664062 225.0625 249.851562 225.386719 246.046875 225.8125 C 241.796875 226.285156 237.535156 226.550781 233.257812 226.6875 C 227.5 226.875 221.753906 227.378906 215.988281 227.363281 C 208.664062 227.347656 201.339844 227.339844 194.011719 227.335938 C 189.21875 227.332031 184.421875 227.269531 179.625 227.382812 C 178.472656 227.410156 177.320312 227.40625 176.167969 227.390625 C 174.644531 227.371094 173.121094 227.359375 171.597656 227.492188 C 170.710938 227.566406 169.8125 227.574219 168.921875 227.511719 C 166.730469 227.355469 164.546875 227.457031 162.355469 227.566406 C 158.382812 227.761719 154.40625 227.804688 150.429688 227.90625 C 149.984375 227.917969 149.542969 227.90625 148.90625 227.90625 Z M 142.882812 219.695312 C 141.542969 216.289062 138.246094 214.414062 135.046875 214.414062 C 132.609375 214.417969 130.339844 215.09375 128.28125 216.371094 C 125.433594 218.132812 123.808594 220.648438 123.800781 224.089844 C 123.796875 225.171875 123.855469 226.246094 124.082031 227.304688 C 124.734375 230.3125 126.25 232.640625 129.164062 233.917969 C 130.542969 234.523438 131.980469 234.800781 133.457031 235.03125 C 137.707031 235.699219 141.550781 232.703125 142.828125 229.488281 C 143.441406 227.953125 143.800781 226.371094 143.777344 224.988281 C 143.84375 222.972656 143.515625 221.300781 142.882812 219.695312 Z M 112.542969 221.1875 C 106.828125 221.496094 101.097656 221.53125 95.390625 221.976562 C 93.796875 222.097656 92.203125 222.160156 90.601562 222.125 C 89.214844 222.097656 89.050781 222.289062 88.820312 223.695312 C 88.621094 224.910156 88.503906 226.148438 88.636719 227.363281 C 88.890625 229.652344 89.011719 230.292969 91.609375 230.222656 C 95.472656 230.125 99.332031 229.996094 103.195312 229.941406 C 104.828125 229.914062 106.460938 229.832031 108.097656 229.835938 C 111.292969 229.847656 114.492188 229.847656 117.679688 229.542969 C 118.46875 229.464844 118.488281 229.472656 118.324219 228.695312 C 117.835938 226.328125 117.832031 223.96875 118.449219 221.621094 C 118.484375 221.488281 118.453125 221.335938 118.453125 221.171875 C 116.46875 221.171875 114.5 221.082031 112.542969 221.1875 Z M 153.296875 126.117188 C 153.570312 129.679688 153.597656 133.25 153.792969 136.816406 C 154.105469 142.613281 154.734375 148.378906 155.582031 154.121094 C 155.964844 156.730469 156.410156 159.335938 156.890625 161.929688 C 157.171875 163.4375 157.902344 163.828125 159.386719 163.410156 C 159.636719 163.34375 159.875 163.226562 160.105469 163.109375 C 160.664062 162.816406 161.230469 162.53125 161.769531 162.207031 C 167.292969 158.902344 172.578125 155.246094 177.804688 151.5 C 182.394531 148.210938 186.785156 144.644531 191.613281 141.691406 C 192.851562 140.933594 194.074219 140.160156 195.308594 139.402344 C 195.726562 139.148438 196.089844 138.855469 196.375 138.441406 C 197.097656 137.390625 196.941406 136.59375 195.804688 135.988281 C 195.148438 135.640625 194.460938 135.34375 193.765625 135.09375 C 191.214844 134.175781 188.664062 133.257812 186.097656 132.394531 C 179.480469 130.167969 172.863281 127.945312 166.433594 125.214844 C 162.570312 123.578125 158.726562 121.902344 154.816406 120.371094 C 153.324219 119.789062 152.585938 120.175781 152.90625 121.898438 C 153.039062 123.304688 153.1875 124.710938 153.296875 126.117188 Z M 153.296875 126.117188 " fill-opacity="1" fill-rule="nonzero"/></g><g clip-path="url(#3613173a73)"><path fill="#d4f6c8" d="M 266.660156 148.574219 C 266.660156 152.476562 266.625 155.304688 266.667969 158.132812 C 266.710938 160.738281 266.445312 163.328125 266.382812 165.929688 C 266.320312 168.519531 266.101562 171.109375 265.953125 173.699219 C 265.820312 176.066406 265.652344 178.433594 265.515625 180.800781 C 265.363281 183.386719 265.128906 185.96875 264.855469 188.546875 C 264.535156 191.546875 264.015625 194.503906 262.433594 197.152344 C 260.675781 200.089844 258.234375 202.105469 254.800781 202.78125 C 252.503906 203.230469 250.179688 203.324219 247.851562 203.464844 C 243.210938 203.742188 238.5625 203.785156 233.929688 203.605469 C 226.421875 203.316406 218.914062 203.652344 211.414062 203.398438 C 200.449219 203.03125 189.484375 203.28125 178.523438 203.261719 C 176.046875 203.257812 173.550781 203.316406 171.074219 203.488281 C 169.703125 203.582031 168.332031 203.566406 166.96875 203.679688 C 164.273438 203.902344 161.566406 203.949219 158.875 204.160156 C 156.234375 204.367188 153.601562 204.179688 150.972656 204.355469 C 148.304688 204.535156 145.625 204.429688 142.964844 204.605469 C 141.484375 204.707031 139.996094 204.644531 138.523438 204.804688 C 135.875 205.09375 133.210938 205.117188 130.558594 205.382812 C 129.128906 205.527344 127.675781 205.59375 126.238281 205.691406 C 124.839844 205.789062 123.425781 205.800781 122.042969 206.070312 C 121.933594 206.089844 121.820312 206.105469 121.710938 206.101562 C 119.8125 205.992188 117.9375 206.367188 116.042969 206.34375 C 113.222656 206.3125 110.402344 206.496094 107.589844 206.632812 C 104.878906 206.761719 102.171875 206.832031 99.46875 206.75 C 96.25 206.652344 93.054688 206.230469 89.945312 205.332031 C 88.027344 204.777344 86.292969 203.847656 84.855469 202.457031 C 83.535156 201.171875 82.574219 199.605469 81.941406 197.882812 C 81.019531 195.367188 80.566406 192.75 80.289062 190.078125 C 80.058594 187.832031 79.921875 185.578125 79.71875 183.332031 C 79.585938 181.898438 79.484375 180.449219 79.398438 179.007812 C 79.3125 177.53125 79.308594 176.042969 79.03125 174.582031 C 79.003906 174.4375 78.996094 174.285156 78.996094 174.140625 C 79.003906 171.503906 78.617188 168.890625 78.496094 166.261719 C 78.390625 163.929688 78.1875 161.601562 78.0625 159.269531 C 77.894531 156.273438 77.757812 153.269531 77.59375 150.273438 C 77.5 148.605469 77.523438 146.933594 77.402344 145.269531 C 77.171875 142.160156 77.136719 139.042969 76.925781 135.9375 C 76.828125 134.414062 76.894531 132.886719 76.71875 131.382812 C 76.511719 129.636719 76.691406 127.882812 76.488281 126.15625 C 76.234375 123.960938 76.414062 121.773438 76.289062 119.585938 C 75.859375 111.925781 76.261719 104.261719 76.042969 96.601562 C 75.988281 94.75 75.882812 92.894531 75.871094 91.039062 C 75.863281 90.214844 76.019531 89.414062 76.210938 88.625 C 76.617188 86.957031 77.738281 85.925781 79.359375 85.488281 C 80.894531 85.074219 82.445312 84.707031 84.003906 84.398438 C 86.433594 83.917969 88.867188 83.445312 91.3125 83.074219 C 93.433594 82.757812 95.574219 82.582031 97.703125 82.351562 C 99.6875 82.132812 101.667969 81.894531 103.65625 81.726562 C 104.6875 81.636719 105.726562 81.546875 106.757812 81.496094 C 109.015625 81.394531 111.25 81.082031 113.507812 80.96875 C 115.949219 80.839844 118.394531 80.734375 120.824219 80.507812 C 122.855469 80.316406 124.90625 80.585938 126.917969 80.144531 C 127.023438 80.121094 127.140625 80.128906 127.25 80.132812 C 130.558594 80.246094 133.855469 79.914062 137.15625 79.84375 C 139.230469 79.796875 141.316406 79.816406 143.378906 79.621094 C 144.789062 79.488281 146.210938 79.625 147.59375 79.417969 C 149.695312 79.097656 151.828125 79.453125 153.914062 79.027344 C 153.984375 79.011719 154.0625 79.011719 154.136719 79.015625 C 156.402344 79.136719 158.652344 78.765625 160.917969 78.785156 C 163.292969 78.808594 165.660156 78.566406 168.03125 78.492188 C 169.546875 78.449219 171.070312 78.433594 172.585938 78.3125 C 175.058594 78.109375 177.535156 78.003906 180.011719 77.847656 C 181.820312 77.738281 183.628906 77.578125 185.429688 77.398438 C 187.414062 77.199219 189.40625 77.054688 191.386719 76.832031 C 192.558594 76.699219 193.753906 76.628906 194.925781 76.507812 C 197.242188 76.269531 199.582031 76.277344 201.886719 75.902344 C 201.957031 75.890625 202.035156 75.886719 202.109375 75.890625 C 204.410156 75.96875 206.699219 75.679688 209 75.621094 C 219.109375 75.363281 229.21875 75.539062 239.324219 75.371094 C 242.03125 75.324219 244.742188 75.183594 247.449219 75.242188 C 249.808594 75.289062 252.167969 75.550781 254.503906 75.953125 C 255.78125 76.171875 257.046875 76.4375 258.285156 76.828125 C 260.359375 77.480469 261.667969 78.898438 262.417969 80.890625 C 263.019531 82.496094 263.292969 84.183594 263.519531 85.871094 C 263.792969 87.886719 263.96875 89.914062 264.1875 91.9375 C 264.191406 91.976562 264.191406 92.011719 264.191406 92.050781 C 264.082031 93.835938 264.476562 95.601562 264.433594 97.386719 C 264.378906 99.542969 264.636719 101.6875 264.703125 103.839844 C 264.769531 106.132812 264.992188 108.425781 265.132812 110.71875 C 265.277344 113.121094 265.433594 115.527344 265.582031 117.929688 C 265.765625 120.890625 265.894531 123.855469 266.039062 126.816406 C 266.125 128.597656 266.074219 130.386719 266.257812 132.15625 C 266.414062 133.679688 266.316406 135.203125 266.460938 136.710938 C 266.882812 141.019531 266.519531 145.335938 266.660156 148.574219 Z M 254.601562 164.492188 C 254.464844 162.277344 254.660156 159.195312 254.449219 156.105469 C 254.226562 152.855469 254.050781 149.585938 253.992188 146.328125 C 253.902344 141.308594 253.78125 136.292969 253.730469 131.273438 C 253.699219 128.300781 253.355469 125.335938 253.480469 122.359375 C 253.484375 122.285156 253.484375 122.210938 253.472656 122.136719 C 253.070312 119.75 253.3125 117.324219 253.089844 114.921875 C 252.9375 113.265625 252.699219 111.597656 252.808594 109.921875 C 252.8125 109.847656 252.804688 109.773438 252.789062 109.699219 C 252.464844 108.167969 252.539062 106.601562 252.410156 105.054688 C 252.265625 103.28125 252.140625 101.511719 251.707031 99.78125 C 251.164062 97.625 250.753906 95.417969 249.65625 93.445312 C 248.503906 91.367188 247.140625 89.523438 244.804688 88.59375 C 243.359375 88.019531 241.855469 87.882812 240.351562 87.746094 C 239.136719 87.632812 237.917969 87.648438 236.695312 87.542969 C 234.078125 87.316406 231.445312 87.175781 228.820312 87.089844 C 224.445312 86.945312 220.0625 86.953125 215.679688 86.875 C 211.117188 86.789062 206.542969 86.621094 201.980469 87.023438 C 200.136719 87.183594 198.28125 87.070312 196.421875 87.210938 C 194.171875 87.382812 191.902344 87.429688 189.644531 87.457031 C 187.378906 87.480469 185.109375 87.578125 182.867188 87.785156 C 180.945312 87.964844 179.019531 87.976562 177.105469 88.089844 C 174.480469 88.25 171.847656 88.523438 169.210938 88.398438 C 169.023438 88.390625 168.832031 88.371094 168.652344 88.414062 C 166.867188 88.828125 165.035156 88.625 163.230469 88.773438 C 160.648438 88.984375 158.054688 89.082031 155.46875 89.234375 C 153.140625 89.367188 150.8125 89.480469 148.488281 89.714844 C 146.652344 89.902344 144.789062 89.9375 142.96875 90.21875 C 140.589844 90.589844 138.191406 90.742188 135.808594 91.035156 C 133.203125 91.351562 130.582031 91.605469 127.964844 91.695312 C 125.699219 91.769531 123.460938 92.039062 121.210938 92.222656 C 120.179688 92.304688 119.140625 92.347656 118.113281 92.453125 C 116.347656 92.632812 114.59375 92.910156 112.828125 93.058594 C 110.835938 93.226562 108.863281 93.539062 106.898438 93.875 C 104.859375 94.21875 102.828125 94.636719 100.8125 95.113281 C 98.792969 95.589844 96.796875 96.132812 94.941406 97.136719 C 92.8125 98.289062 91.71875 100.1875 91.539062 102.4375 C 91.304688 105.390625 91.1875 108.359375 91.074219 111.320312 C 90.882812 116.335938 91.199219 121.359375 90.839844 126.375 C 90.757812 127.519531 90.925781 128.667969 90.996094 129.816406 C 91.167969 132.667969 90.9375 135.53125 91.222656 138.394531 C 91.425781 140.417969 91.25 142.46875 91.4375 144.511719 C 91.671875 147.097656 91.398438 149.707031 91.671875 152.308594 C 91.871094 154.222656 91.660156 156.160156 91.886719 158.09375 C 92.085938 159.820312 91.996094 161.574219 92.101562 163.316406 C 92.269531 166.019531 92.386719 168.722656 92.566406 171.421875 C 92.695312 173.347656 92.6875 175.277344 92.777344 177.207031 C 92.910156 180.175781 93.082031 183.132812 93.742188 186.027344 C 94.179688 187.925781 94.941406 189.679688 96.410156 191.078125 C 98.074219 192.660156 100.128906 193.332031 102.277344 193.820312 C 103.507812 194.097656 104.753906 194.230469 106.011719 194.34375 C 107.335938 194.464844 108.648438 194.730469 109.984375 194.707031 C 113.285156 194.65625 116.585938 194.738281 119.890625 194.5625 C 123.515625 194.367188 127.152344 194.375 130.777344 194.078125 C 132.433594 193.941406 134.117188 193.898438 135.773438 193.886719 C 139.785156 193.863281 143.785156 193.5625 147.796875 193.589844 C 149.613281 193.605469 151.421875 193.652344 153.246094 193.421875 C 155.222656 193.175781 157.226562 193.121094 159.21875 192.96875 C 161.652344 192.777344 164.09375 192.640625 166.535156 192.527344 C 169.417969 192.390625 172.304688 192.191406 175.1875 192.082031 C 179.191406 191.933594 183.203125 192.003906 187.214844 191.859375 C 189.289062 191.785156 191.363281 191.644531 193.433594 191.539062 C 195.875 191.417969 198.308594 191.175781 200.753906 191.160156 C 202.941406 191.148438 205.117188 190.789062 207.3125 190.914062 C 207.386719 190.917969 207.460938 190.921875 207.535156 190.902344 C 209.46875 190.464844 211.453125 190.84375 213.40625 190.515625 C 214.636719 190.304688 215.917969 190.375 217.171875 190.3125 C 220.132812 190.167969 223.089844 189.996094 226.046875 189.839844 C 228.453125 189.714844 230.851562 189.574219 233.253906 189.398438 C 235.835938 189.207031 238.425781 189.113281 241.011719 188.941406 C 242.695312 188.828125 244.316406 188.542969 245.898438 187.992188 C 247.535156 187.421875 249.039062 186.609375 250.222656 185.335938 C 252.105469 183.316406 253.378906 180.957031 253.972656 178.238281 C 254.371094 176.417969 254.5 174.570312 254.578125 172.726562 C 254.679688 170.273438 254.601562 167.8125 254.601562 164.492188 Z M 211.023438 92.855469 C 213.859375 92.855469 215.757812 92.878906 217.652344 92.847656 C 222.035156 92.777344 226.414062 93.058594 230.792969 93.140625 C 233.441406 93.195312 236.117188 93.300781 238.753906 93.714844 C 239.519531 93.835938 240.308594 93.90625 241.070312 93.921875 C 242.480469 93.949219 243.277344 94.800781 243.886719 95.8125 C 244.773438 97.273438 245.394531 98.871094 245.6875 100.578125 C 245.789062 101.160156 246.035156 101.714844 246.125 102.296875 C 246.382812 104.019531 246.566406 105.75 246.582031 107.496094 C 246.597656 109.199219 246.773438 110.894531 246.980469 112.585938 C 247.027344 112.953125 247.019531 113.328125 247.011719 113.699219 C 246.976562 115.746094 247.152344 117.773438 247.441406 119.792969 C 247.457031 119.902344 247.460938 120.015625 247.457031 120.128906 C 247.335938 123.214844 247.609375 126.292969 247.738281 129.371094 C 247.945312 134.128906 247.78125 138.890625 247.964844 143.640625 C 248.035156 145.457031 248.027344 147.28125 248.164062 149.089844 C 248.421875 152.570312 248.4375 156.0625 248.644531 159.539062 C 248.84375 162.925781 248.839844 166.304688 248.75 169.679688 C 248.683594 172.148438 248.734375 174.648438 248.148438 177.089844 C 247.375 180.339844 245.34375 182.597656 241.628906 182.90625 C 239.269531 183.105469 236.90625 183.234375 234.539062 183.367188 C 232.210938 183.496094 229.886719 183.671875 227.558594 183.8125 C 224.863281 183.972656 222.160156 184.105469 219.464844 184.273438 C 217.796875 184.375 216.128906 184.34375 214.46875 184.472656 C 211.621094 184.695312 208.769531 184.769531 205.925781 184.949219 C 204.222656 185.058594 202.515625 185.007812 200.816406 185.140625 C 197.972656 185.363281 195.113281 185.359375 192.277344 185.597656 C 188.425781 185.921875 184.578125 186.039062 180.71875 186.019531 C 177.972656 186.003906 175.234375 186.210938 172.488281 186.285156 C 169.605469 186.367188 166.722656 186.582031 163.835938 186.71875 C 161.546875 186.824219 159.246094 186.941406 156.96875 187.171875 C 153.75 187.503906 150.527344 187.460938 147.3125 187.628906 C 144.191406 187.792969 141.070312 187.644531 137.964844 187.847656 C 136.257812 187.960938 134.554688 187.925781 132.855469 188.042969 C 129.636719 188.269531 126.414062 188.316406 123.199219 188.515625 C 118.371094 188.820312 113.542969 188.699219 108.71875 188.648438 C 106.589844 188.628906 104.445312 188.328125 102.363281 187.753906 C 100.871094 187.34375 99.882812 186.484375 99.554688 184.929688 C 99.191406 183.1875 98.925781 181.441406 98.824219 179.65625 C 98.707031 177.578125 98.710938 175.496094 98.566406 173.429688 C 98.472656 172.019531 98.488281 170.609375 98.382812 169.207031 C 98.160156 166.285156 98.089844 163.355469 97.894531 160.433594 C 97.789062 158.835938 97.851562 157.238281 97.710938 155.652344 C 97.460938 152.757812 97.636719 149.855469 97.453125 146.96875 C 97.335938 145.109375 97.453125 143.246094 97.242188 141.40625 C 96.980469 139.066406 97.210938 136.722656 97.035156 134.394531 C 96.621094 128.894531 96.78125 123.386719 96.90625 117.890625 C 97 113.6875 96.988281 109.492188 97.066406 105.292969 C 97.078125 104.585938 97.304688 103.910156 97.332031 103.199219 C 97.355469 102.636719 97.773438 102.300781 98.285156 102.066406 C 99.472656 101.515625 100.746094 101.234375 102.003906 100.9375 C 104.878906 100.253906 107.777344 99.664062 110.71875 99.304688 C 112.734375 99.058594 114.746094 98.777344 116.777344 98.628906 C 119.5 98.429688 122.210938 98 124.9375 97.816406 C 126.226562 97.730469 127.511719 97.546875 128.8125 97.535156 C 130.476562 97.523438 132.128906 97.285156 133.789062 97.15625 C 134.929688 97.066406 136.066406 96.902344 137.214844 96.847656 C 138.800781 96.773438 140.382812 96.566406 141.960938 96.367188 C 143.867188 96.128906 145.761719 95.816406 147.6875 95.738281 C 148.863281 95.6875 150.039062 95.5 151.214844 95.375 C 151.359375 95.359375 151.507812 95.316406 151.652344 95.324219 C 153.585938 95.410156 155.515625 95.171875 157.425781 95.019531 C 159.234375 94.875 161.066406 95.082031 162.851562 94.664062 C 162.921875 94.644531 163 94.648438 163.074219 94.652344 C 165.523438 94.753906 167.964844 94.46875 170.40625 94.355469 C 172.433594 94.257812 174.488281 94.386719 176.5 93.996094 C 176.75 93.945312 177.019531 93.964844 177.28125 93.980469 C 179.4375 94.09375 181.578125 93.8125 183.722656 93.6875 C 185.242188 93.597656 186.769531 93.660156 188.273438 93.492188 C 190.3125 93.265625 192.363281 93.457031 194.382812 93.25 C 196.128906 93.074219 197.875 93.222656 199.605469 93.050781 C 203.722656 92.636719 207.847656 92.996094 211.023438 92.855469 Z M 152.90625 121.898438 C 153.039062 123.304688 153.1875 124.710938 153.296875 126.117188 C 153.570312 129.679688 153.597656 133.25 153.792969 136.816406 C 154.105469 142.613281 154.734375 148.378906 155.582031 154.121094 C 155.964844 156.730469 156.410156 159.335938 156.890625 161.929688 C 157.171875 163.4375 157.902344 163.828125 159.386719 163.410156 C 159.636719 163.34375 159.875 163.226562 160.105469 163.109375 C 160.664062 162.816406 161.230469 162.53125 161.769531 162.207031 C 167.292969 158.902344 172.578125 155.246094 177.804688 151.5 C 182.394531 148.210938 186.785156 144.644531 191.613281 141.691406 C 192.851562 140.933594 194.074219 140.160156 195.308594 139.402344 C 195.726562 139.148438 196.089844 138.855469 196.375 138.441406 C 197.097656 137.390625 196.941406 136.59375 195.804688 135.988281 C 195.148438 135.640625 194.460938 135.34375 193.765625 135.09375 C 191.214844 134.175781 188.664062 133.257812 186.097656 132.394531 C 179.480469 130.167969 172.863281 127.945312 166.433594 125.214844 C 162.570312 123.578125 158.726562 121.902344 154.816406 120.371094 C 153.324219 119.789062 152.585938 120.175781 152.90625 121.898438 Z M 152.90625 121.898438 " fill-opacity="1" fill-rule="nonzero"/></g><g clip-path="url(#2ed3517353)"><path fill="#303d37" d="M 148.90625 227.90625 C 149.421875 225.367188 149.414062 223.015625 148.703125 220.730469 C 149.09375 220.480469 149.4375 220.585938 149.757812 220.589844 C 157.234375 220.730469 164.707031 220.617188 172.175781 220.355469 C 177.710938 220.160156 183.253906 220.179688 188.78125 219.796875 C 189.78125 219.730469 190.789062 219.707031 191.792969 219.707031 C 200.121094 219.703125 208.441406 219.355469 216.765625 219.039062 C 222.113281 218.835938 227.464844 218.628906 232.820312 218.648438 C 234.644531 218.65625 236.460938 218.5 238.277344 218.390625 C 243.402344 218.074219 248.539062 218.261719 253.664062 217.980469 C 255.371094 217.886719 257.078125 217.816406 258.789062 217.746094 C 259.121094 217.730469 259.460938 217.722656 259.789062 217.769531 C 260.28125 217.84375 260.5625 218.121094 260.632812 218.652344 C 260.84375 220.242188 260.914062 221.839844 260.835938 223.441406 C 260.789062 224.421875 260.464844 224.769531 259.5 224.890625 C 258.835938 224.972656 258.167969 225.066406 257.5 225.066406 C 253.664062 225.0625 249.851562 225.386719 246.046875 225.8125 C 241.796875 226.285156 237.535156 226.550781 233.257812 226.6875 C 227.5 226.875 221.753906 227.378906 215.988281 227.363281 C 208.664062 227.347656 201.339844 227.339844 194.011719 227.335938 C 189.21875 227.332031 184.421875 227.269531 179.625 227.382812 C 178.472656 227.410156 177.320312 227.40625 176.167969 227.390625 C 174.644531 227.371094 173.121094 227.359375 171.597656 227.492188 C 170.710938 227.566406 169.8125 227.574219 168.921875 227.511719 C 166.730469 227.355469 164.546875 227.457031 162.355469 227.566406 C 158.382812 227.761719 154.40625 227.804688 150.429688 227.90625 C 149.984375 227.917969 149.542969 227.90625 148.90625 227.90625 Z M 142.882812 219.695312 C 141.542969 216.289062 138.246094 214.414062 135.046875 214.414062 C 132.609375 214.417969 130.339844 215.09375 128.28125 216.371094 C 125.433594 218.132812 123.808594 220.648438 123.800781 224.089844 C 123.796875 225.171875 123.855469 226.246094 124.082031 227.304688 C 124.734375 230.3125 126.25 232.640625 129.164062 233.917969 C 130.542969 234.523438 131.980469 234.800781 133.457031 235.03125 C 137.707031 235.699219 141.550781 232.703125 142.828125 229.488281 C 143.441406 227.953125 143.800781 226.371094 143.777344 224.988281 C 143.84375 222.972656 143.515625 221.300781 142.882812 219.695312 Z M 112.542969 221.1875 C 106.828125 221.496094 101.097656 221.53125 95.390625 221.976562 C 93.796875 222.097656 92.203125 222.160156 90.601562 222.125 C 89.214844 222.097656 89.050781 222.289062 88.820312 223.695312 C 88.621094 224.910156 88.503906 226.148438 88.636719 227.363281 C 88.890625 229.652344 89.011719 230.292969 91.609375 230.222656 C 95.472656 230.125 99.332031 229.996094 103.195312 229.941406 C 104.828125 229.914062 106.460938 229.832031 108.097656 229.835938 C 111.292969 229.847656 114.492188 229.847656 117.679688 229.542969 C 118.46875 229.464844 118.488281 229.472656 118.324219 228.695312 C 117.835938 226.328125 117.832031 223.96875 118.449219 221.621094 C 118.484375 221.488281 118.453125 221.335938 118.453125 221.171875 C 116.46875 221.171875 114.5 221.082031 112.542969 221.1875 Z M 153.296875 126.117188 C 153.570312 129.679688 153.597656 133.25 153.792969 136.816406 C 154.105469 142.613281 154.734375 148.378906 155.582031 154.121094 C 155.964844 156.730469 156.410156 159.335938 156.890625 161.929688 C 157.171875 163.4375 157.902344 163.828125 159.386719 163.410156 C 159.636719 163.34375 159.875 163.226562 160.105469 163.109375 C 160.664062 162.816406 161.230469 162.53125 161.769531 162.207031 C 167.292969 158.902344 172.578125 155.246094 177.804688 151.5 C 182.394531 148.210938 186.785156 144.644531 191.613281 141.691406 C 192.851562 140.933594 194.074219 140.160156 195.308594 139.402344 C 195.726562 139.148438 196.089844 138.855469 196.375 138.441406 C 197.097656 137.390625 196.941406 136.59375 195.804688 135.988281 C 195.148438 135.640625 194.460938 135.34375 193.765625 135.09375 C 191.214844 134.175781 188.664062 133.257812 186.097656 132.394531 C 179.480469 130.167969 172.863281 127.945312 166.433594 125.214844 C 162.570312 123.578125 158.726562 121.902344 154.816406 120.371094 C 153.324219 119.789062 152.585938 120.175781 152.90625 121.898438 C 153.039062 123.304688 153.1875 124.710938 153.296875 126.117188 Z M 153.296875 126.117188 " fill-opacity="1" fill-rule="nonzero"/></g><g fill="#1a5b42" fill-opacity="1"><g transform="translate(118.801832, 198.462029)"><g><path d="M 1.1875 0.53125 C 1.726562 -1.976562 2 -4.640625 2 -7.453125 C 2 -8.066406 1.957031 -9.398438 1.875 -11.453125 C 1.789062 -13.515625 1.453125 -16.585938 0.859375 -20.671875 L 6.890625 -21.671875 C 8.234375 -18.609375 9.609375 -15.707031 11.015625 -12.96875 C 12.429688 -10.226562 13.96875 -8.050781 15.625 -6.4375 L 15.515625 -21.734375 L 20.390625 -21.875 C 20.191406 -19.257812 20.09375 -16.707031 20.09375 -14.21875 C 20.09375 -9.320312 20.472656 -4.679688 21.234375 -0.296875 L 14.671875 0.390625 C 10.722656 -4.984375 7.722656 -10.179688 5.671875 -15.203125 C 6.335938 -11.066406 6.671875 -6.878906 6.671875 -2.640625 C 6.671875 -1.609375 6.648438 -0.566406 6.609375 0.484375 Z M 1.1875 0.53125 "/></g></g></g><g fill="#1a5b42" fill-opacity="1"><g transform="translate(138.074622, 198.462029)"><g><path d="M 7.40625 -18.765625 C 7.40625 -17.984375 7.097656 -17.320312 6.484375 -16.78125 C 5.878906 -16.238281 5.148438 -15.96875 4.296875 -15.96875 C 3.441406 -15.96875 2.710938 -16.238281 2.109375 -16.78125 C 1.503906 -17.320312 1.203125 -17.984375 1.203125 -18.765625 C 1.203125 -19.523438 1.503906 -20.175781 2.109375 -20.71875 C 2.710938 -21.257812 3.441406 -21.53125 4.296875 -21.53125 C 5.148438 -21.53125 5.878906 -21.257812 6.484375 -20.71875 C 7.097656 -20.175781 7.40625 -19.523438 7.40625 -18.765625 Z M 1.703125 -14.40625 C 2.640625 -14.15625 3.328125 -14.023438 3.765625 -14.015625 C 4.203125 -14.015625 4.429688 -14.015625 4.453125 -14.015625 C 5.265625 -14.015625 6.007812 -14.195312 6.6875 -14.5625 C 6.507812 -13.019531 6.421875 -11.46875 6.421875 -9.90625 C 6.421875 -6.632812 6.804688 -3.285156 7.578125 0.140625 C 6.671875 -0.191406 5.71875 -0.359375 4.71875 -0.359375 C 3.71875 -0.359375 2.675781 -0.191406 1.59375 0.140625 C 2.082031 -2.492188 2.328125 -5.066406 2.328125 -7.578125 C 2.328125 -9.898438 2.117188 -12.175781 1.703125 -14.40625 Z M 1.703125 -14.40625 "/></g></g></g><g fill="#1a5b42" fill-opacity="1"><g transform="translate(144.419448, 198.462029)"><g><path d="M 1.28125 -22.171875 C 1.28125 -22.171875 1.875 -22.285156 3.0625 -22.515625 C 4.257812 -22.742188 5.425781 -22.894531 6.5625 -22.96875 C 7.695312 -23.050781 8.523438 -23.09375 9.046875 -23.09375 C 10.253906 -23.09375 11.597656 -22.976562 13.078125 -22.75 C 14.554688 -22.519531 15.898438 -21.929688 17.109375 -20.984375 C 18.316406 -20.046875 18.976562 -18.617188 19.09375 -16.703125 C 19.09375 -16.585938 19.09375 -16.46875 19.09375 -16.34375 C 19.09375 -14.539062 18.734375 -13.0625 18.015625 -11.90625 C 17.296875 -10.75 16.359375 -9.863281 15.203125 -9.25 C 14.046875 -8.632812 12.878906 -8.222656 11.703125 -8.015625 C 10.523438 -7.804688 9.535156 -7.703125 8.734375 -7.703125 C 8.023438 -7.703125 7.671875 -7.703125 7.671875 -7.703125 C 7.671875 -6.835938 7.578125 -5.140625 7.390625 -2.609375 C 7.210938 -0.078125 7.097656 1.1875 7.046875 1.1875 L 1.90625 -0.28125 C 2.445312 -1.8125 2.851562 -4.882812 3.125 -9.5 C 3.019531 -12.4375 2.613281 -15.085938 1.90625 -17.453125 C 1.46875 -17.335938 1.25 -17.28125 1.25 -17.28125 Z M 7.34375 -11.1875 C 7.507812 -11.21875 7.820312 -11.28125 8.28125 -11.375 C 8.976562 -11.519531 9.789062 -11.75 10.71875 -12.0625 C 11.65625 -12.382812 12.488281 -12.8125 13.21875 -13.34375 C 13.945312 -13.875 14.363281 -14.523438 14.46875 -15.296875 C 14.476562 -15.398438 14.484375 -15.5 14.484375 -15.59375 C 14.484375 -16.613281 14.078125 -17.359375 13.265625 -17.828125 C 12.453125 -18.296875 11.382812 -18.546875 10.0625 -18.578125 C 9.96875 -18.578125 9.875 -18.578125 9.78125 -18.578125 C 8.914062 -18.578125 8.039062 -18.53125 7.15625 -18.4375 C 7.1875 -18.195312 7.222656 -17.914062 7.265625 -17.59375 C 7.316406 -17.03125 7.367188 -16.390625 7.421875 -15.671875 C 7.472656 -14.953125 7.515625 -14.171875 7.546875 -13.328125 C 7.546875 -13.273438 7.546875 -13.21875 7.546875 -13.15625 C 7.546875 -12.539062 7.476562 -11.882812 7.34375 -11.1875 Z M 7.34375 -11.1875 "/></g></g></g><g fill="#1a5b42" fill-opacity="1"><g transform="translate(161.76109, 198.462029)"><g><path d="M 1.34375 -21.375 L 6.03125 -22.109375 C 6.03125 -22.109375 5.953125 -20.359375 5.796875 -16.859375 C 5.648438 -13.367188 5.601562 -10.5 5.65625 -8.25 C 5.664062 -8.039062 5.671875 -7.84375 5.671875 -7.65625 C 5.742188 -6.75 5.960938 -6.070312 6.328125 -5.625 C 6.703125 -5.1875 7.097656 -4.90625 7.515625 -4.78125 C 7.941406 -4.664062 8.3125 -4.609375 8.625 -4.609375 C 8.675781 -4.609375 8.800781 -4.613281 9 -4.625 C 9.207031 -4.644531 9.3125 -4.65625 9.3125 -4.65625 L 8.671875 -0.328125 C 8.671875 -0.328125 8.441406 -0.226562 7.984375 -0.03125 C 7.535156 0.164062 7.085938 0.300781 6.640625 0.375 C 6.191406 0.457031 5.847656 0.5 5.609375 0.5 C 5.171875 0.5 4.660156 0.410156 4.078125 0.234375 C 3.492188 0.0546875 2.925781 -0.421875 2.375 -1.203125 C 1.851562 -2.109375 1.515625 -3.507812 1.359375 -5.40625 C 1.210938 -7.3125 1.125 -9.070312 1.09375 -10.6875 C 1.082031 -11.613281 1.082031 -12.976562 1.09375 -14.78125 C 1.113281 -16.59375 1.160156 -18.144531 1.234375 -19.4375 C 1.304688 -20.726562 1.34375 -21.375 1.34375 -21.375 Z M 1.34375 -21.375 "/></g></g></g><g fill="#1a5b42" fill-opacity="1"><g transform="translate(168.302607, 198.462029)"><g><path d="M 11.703125 -17.171875 L 16.34375 -16.734375 C 16.082031 -15.296875 15.953125 -13.71875 15.953125 -12 C 15.953125 -10.695312 16.078125 -8.835938 16.328125 -6.421875 C 16.578125 -4.003906 17.140625 -1.898438 18.015625 -0.109375 C 17.847656 -0.109375 17.675781 -0.109375 17.5 -0.109375 C 16.582031 -0.109375 15.695312 -0.015625 14.84375 0.171875 C 14 0.359375 13.242188 0.601562 12.578125 0.90625 C 12.441406 0.90625 12.304688 0.601562 12.171875 0 C 12.054688 -0.539062 11.953125 -1.257812 11.859375 -2.15625 C 10.523438 -0.820312 9.242188 0.0078125 8.015625 0.34375 C 7.484375 0.46875 6.972656 0.53125 6.484375 0.53125 C 5.535156 0.53125 4.570312 0.191406 3.59375 -0.484375 C 2.613281 -1.171875 1.914062 -2.1875 1.5 -3.53125 C 1.09375 -4.875 0.890625 -6.113281 0.890625 -7.25 C 0.890625 -8.070312 0.972656 -8.941406 1.140625 -9.859375 C 1.484375 -11.554688 2.0625 -12.851562 2.875 -13.75 C 3.695312 -14.644531 4.609375 -15.25 5.609375 -15.5625 C 6.617188 -15.882812 7.582031 -16.046875 8.5 -16.046875 C 8.53125 -16.046875 8.789062 -16.039062 9.28125 -16.03125 C 9.78125 -16.03125 10.347656 -15.960938 10.984375 -15.828125 C 11.242188 -15.765625 11.375 -15.734375 11.375 -15.734375 C 11.382812 -15.816406 11.394531 -15.898438 11.40625 -15.984375 C 11.46875 -16.679688 11.566406 -17.078125 11.703125 -17.171875 Z M 11.515625 -6.21875 C 11.441406 -7.40625 11.390625 -8.585938 11.359375 -9.765625 C 11.359375 -9.878906 11.359375 -10.003906 11.359375 -10.140625 C 11.359375 -10.617188 11.394531 -11.082031 11.46875 -11.53125 C 11.351562 -11.5625 11.0625 -11.640625 10.59375 -11.765625 C 10.101562 -11.898438 9.546875 -11.96875 8.921875 -11.96875 C 8.773438 -11.96875 8.460938 -11.953125 7.984375 -11.921875 C 7.515625 -11.898438 6.953125 -11.625 6.296875 -11.09375 C 5.648438 -10.5625 5.253906 -9.640625 5.109375 -8.328125 C 5.097656 -8.109375 5.09375 -7.894531 5.09375 -7.6875 C 5.09375 -6.289062 5.34375 -5.425781 5.84375 -5.09375 C 6.34375 -4.757812 6.851562 -4.59375 7.375 -4.59375 C 7.707031 -4.59375 8.207031 -4.691406 8.875 -4.890625 C 9.550781 -5.097656 10.273438 -5.445312 11.046875 -5.9375 C 11.359375 -6.125 11.515625 -6.21875 11.515625 -6.21875 Z M 11.515625 -6.21875 "/></g></g></g><g fill="#1a5b42" fill-opacity="1"><g transform="translate(183.730982, 198.462029)"><g><path d="M 10.84375 -15.734375 L 15.390625 -16.34375 C 15.304688 -16.195312 15.265625 -15.785156 15.265625 -15.109375 C 15.265625 -15.066406 15.269531 -14.835938 15.28125 -14.421875 C 15.289062 -14.015625 15.316406 -13.203125 15.359375 -11.984375 C 15.410156 -10.773438 15.457031 -9.4375 15.5 -7.96875 C 15.550781 -6.507812 15.578125 -5.007812 15.578125 -3.46875 C 15.578125 -1.925781 15.582031 -0.882812 15.59375 -0.34375 C 15.601562 0.1875 15.503906 1.007812 15.296875 2.125 C 15.085938 3.25 14.800781 4.140625 14.4375 4.796875 C 13.726562 5.835938 12.640625 6.609375 11.171875 7.109375 C 9.710938 7.617188 7.613281 7.726562 4.875 7.4375 C 2.132812 7.144531 0.765625 7 0.765625 7 L 1.78125 1.359375 C 1.78125 1.359375 2.484375 1.601562 3.890625 2.09375 C 5.304688 2.59375 6.910156 2.675781 8.703125 2.34375 C 10.492188 2.019531 11.269531 0.410156 11.03125 -2.484375 C 10.425781 -2.210938 9.835938 -1.96875 9.265625 -1.75 C 8.222656 -1.351562 7.234375 -1.15625 6.296875 -1.15625 C 6.035156 -1.15625 5.546875 -1.203125 4.828125 -1.296875 C 4.117188 -1.390625 3.238281 -1.9375 2.1875 -2.9375 C 1.664062 -3.488281 1.367188 -4.242188 1.296875 -5.203125 C 1.222656 -6.171875 1.1875 -7.019531 1.1875 -7.75 C 1.1875 -8.351562 1.210938 -9.171875 1.265625 -10.203125 C 1.328125 -11.242188 1.363281 -12.070312 1.375 -12.6875 C 1.382812 -13.300781 1.390625 -13.660156 1.390625 -13.765625 C 1.390625 -14.753906 1.269531 -15.4375 1.03125 -15.8125 L 5.890625 -15.546875 C 5.890625 -15.546875 5.851562 -15.085938 5.78125 -14.171875 C 5.707031 -13.253906 5.671875 -12.378906 5.671875 -11.546875 C 5.671875 -11.109375 5.6875 -10.429688 5.71875 -9.515625 C 5.75 -8.597656 5.953125 -7.679688 6.328125 -6.765625 C 6.640625 -6.128906 6.988281 -5.796875 7.375 -5.765625 C 7.769531 -5.734375 8.019531 -5.71875 8.125 -5.71875 C 8.726562 -5.71875 9.359375 -5.835938 10.015625 -6.078125 C 10.460938 -6.222656 10.875 -6.382812 11.25 -6.5625 C 11.257812 -6.96875 11.265625 -7.375 11.265625 -7.78125 C 11.265625 -8.375 11.253906 -8.960938 11.234375 -9.546875 C 11.171875 -11.316406 11.085938 -12.789062 10.984375 -13.96875 C 10.890625 -15.144531 10.84375 -15.734375 10.84375 -15.734375 Z M 10.84375 -15.734375 "/></g></g></g><g fill="#1a5b42" fill-opacity="1"><g transform="translate(197.871925, 198.462029)"><g><path d="M 4.90625 -6.609375 C 4.90625 -6.578125 4.910156 -6.535156 4.921875 -6.484375 C 5.179688 -5.285156 5.691406 -4.609375 6.453125 -4.453125 C 7.210938 -4.304688 7.835938 -4.234375 8.328125 -4.234375 C 9.023438 -4.234375 9.894531 -4.351562 10.9375 -4.59375 C 11.988281 -4.84375 13.015625 -5.175781 14.015625 -5.59375 C 15.015625 -6.007812 15.515625 -6.21875 15.515625 -6.21875 C 15.515625 -6.1875 15.515625 -6.144531 15.515625 -6.09375 C 15.515625 -5.46875 15.625 -4.828125 15.84375 -4.171875 C 16.070312 -3.523438 16.46875 -2.597656 17.03125 -1.390625 C 17.03125 -1.390625 16.617188 -1.207031 15.796875 -0.84375 C 14.972656 -0.476562 13.941406 -0.140625 12.703125 0.171875 C 11.472656 0.484375 10.203125 0.640625 8.890625 0.640625 C 8.765625 0.640625 8.3125 0.628906 7.53125 0.609375 C 6.75 0.597656 5.710938 0.222656 4.421875 -0.515625 C 3.140625 -1.265625 2.09375 -2.53125 1.28125 -4.3125 C 0.726562 -5.695312 0.453125 -7.039062 0.453125 -8.34375 C 0.453125 -9.25 0.6875 -10.453125 1.15625 -11.953125 C 1.625 -13.453125 2.613281 -14.710938 4.125 -15.734375 C 5.632812 -16.765625 7.160156 -17.28125 8.703125 -17.28125 C 9.285156 -17.28125 9.882812 -17.210938 10.5 -17.078125 C 11.832031 -16.765625 12.882812 -16.25 13.65625 -15.53125 C 14.4375 -14.8125 15.007812 -14.003906 15.375 -13.109375 C 15.738281 -12.210938 15.960938 -11.40625 16.046875 -10.6875 C 16.140625 -9.976562 16.1875 -9.390625 16.1875 -8.921875 C 16.1875 -8.742188 16.171875 -8.476562 16.140625 -8.125 C 16.117188 -7.769531 16.109375 -7.59375 16.109375 -7.59375 C 13.023438 -7.539062 9.289062 -7.210938 4.90625 -6.609375 Z M 12.265625 -10.84375 C 12.265625 -10.84375 12.222656 -10.976562 12.140625 -11.25 C 12.054688 -11.53125 11.890625 -11.847656 11.640625 -12.203125 C 11.398438 -12.566406 11.046875 -12.878906 10.578125 -13.140625 C 10.109375 -13.398438 9.492188 -13.539062 8.734375 -13.5625 C 7.703125 -13.5625 6.859375 -13.390625 6.203125 -13.046875 C 5.554688 -12.710938 5.128906 -12.066406 4.921875 -11.109375 C 4.878906 -10.910156 4.847656 -10.710938 4.828125 -10.515625 Z M 12.265625 -10.84375 "/></g></g></g><g fill="#1a5b42" fill-opacity="1"><g transform="translate(213.04997, 198.462029)"><g><path d="M 0.84375 -16.546875 L 5.96875 -16.671875 C 5.8125 -15.535156 5.703125 -14.425781 5.640625 -13.34375 C 6.398438 -14.269531 7.695312 -15.097656 9.53125 -15.828125 L 11 -11.734375 C 11 -11.734375 10.597656 -11.640625 9.796875 -11.453125 C 9.003906 -11.273438 7.785156 -10.539062 6.140625 -9.25 C 5.941406 -9.09375 5.757812 -8.929688 5.59375 -8.765625 C 5.625 -8.398438 5.65625 -8.046875 5.6875 -7.703125 C 5.925781 -4.878906 6.289062 -2.273438 6.78125 0.109375 L 0.84375 0.453125 C 0.96875 0.429688 1.070312 0.125 1.15625 -0.46875 C 1.238281 -1.070312 1.304688 -1.867188 1.359375 -2.859375 C 1.410156 -3.847656 1.441406 -4.769531 1.453125 -5.625 C 1.460938 -6.476562 1.46875 -7.15625 1.46875 -7.65625 C 1.46875 -8.34375 1.457031 -9.15625 1.4375 -10.09375 C 1.414062 -11.039062 1.378906 -12.019531 1.328125 -13.03125 C 1.273438 -14.039062 1.207031 -14.863281 1.125 -15.5 C 1.039062 -16.132812 0.945312 -16.484375 0.84375 -16.546875 Z M 0.84375 -16.546875 "/></g></g></g></svg>